**ABCDEFGHIJKLMNOPQRSTUVWXYZabcdefghijklmnopqrstuvwxyz**************************
**PARASOLID !"#$%&'()*+,-./:;<=>?@[\]^_`{|}~0123456789**************************
**PART1;
MC=AMD64;
MC_MODEL=Intel64 Family 6 Model 158 Stepping 9, GenuineIntel;
MC_ID=unknown;
OS=Windows_NT;
OS_RELEASE=unknown;
FRU=Parasolid Version 28.0, build 191,  8-24-2015;
APPL=SOLIDWORKS 2016-2015334;
SITE=;
USER=unknown;
FORMAT=text;
GUISE=transmit;
KEY=test1;
FILE=test1.x_t;
DATE=Wed Jun 20 19:58:09 2018;
**PART2;
SCH=SCH_2800191_28002;
USFLD_SIZE=0;
**PART3;
**END_OF_HEADER*****************************************************************
T51 : TRANSMIT FILE created by modeller version 280019123 SCH_2800191_28002_1300
6200 0 10 255 1 5 2 3 0 0 0 0 0 1e3 1e-8 0 0 0 1 0 1 4 81 255 1 2 5 5 1 0 0 0 0
 0 70 11 CI9 list_type0 0 1 uI10 notransmit0 0 1 lCCCDCCDI12 finger_index0 0 1 d
I12 finger_block1012 0 CZ3 0 4 T1 0 0 1 20 1 6 6 11 255 4 3 0 1 7 8 1 9 0 0 0 12
 30 CCCCCCCCCCCCCDI5 owner1040 0 CCCCCCCCCA13 boundary_mesh1006 0 A16 index_map_
offset0 0 1 dA9 index_map82 0 A17 node_id_index_map82 0 A20 schema_embedding_map
82 0 A5 child12 0 A14 lowest_node_id0 0 1 dZ7 159 10 11 0 0 0 0 1e3 1e-8 4 12 0
 1 0 1 1 13 14 15 16 17 18 19 0 0 0 0 0 0 0 100 255 8 4 4 0 0 1 0 0 0 1 0 0 0 1
 -520417042793042e-32 .01 .035 1 1 ?11 9 1 0 1 12 20 1 0 4 0 0 12 12 165 21 22 0
 0 0 0 1e3 1e-8 9 23 7 1 0 1 1 24 25 26 27 28 29 30 0 0 0 0 0 0 0 100 20 2 9 0 0
 0 0 -1 0 1 0 1 0 0 .01 0 0 1 3 ?81 1 21 165 5 12 31 0 0 0 32 70 22 0 4 T12 0 0
 4 20 1 33 33 13 255 24 94 0 12 0 34 0 0 35 0 50 255 25 89 0 34 36 0 0 +0 0 .01
 1 0 0 0 0 -1 30 255 26 93 0 29 37 0 0 +0 0 .01 0 0 -1 29 255 27 70 0 38 39 0 0
 .01 0 19 8 CCCCCCCA5 owner12 0 Z28 28 0 12 35 0 40 V0 16 255 29 77 0 ?41 0 42 2
6 0 0 12 18 255 30 25 0 43 0 44 45 ?12 17 255 43 0 46 47 48 30 49 50 0 51 +18 44
 22 0 48 30 52 53 ?12 29 45 27 0 30 53 54 0 .01 .01 29 53 24 0 44 55 45 .08 .01
 .01 29 54 73 0 56 45 57 0 0 0 18 56 64 0 58 59 0 54 ?12 29 57 72 0 59 54 39 .08
 0 0 18 59 63 0 60 61 56 57 ?12 29 39 71 0 61 57 27 .08 .01 0 18 61 62 0 62 38 5
9 39 ?12 17 62 0 63 64 65 61 66 67 0 68 +18 38 61 0 69 70 61 27 ?12 17 69 0 71 5
1 68 38 72 73 0 74 +18 70 16 0 75 52 38 76 ?12 17 75 0 77 41 78 70 79 80 0 47 -1
8 52 19 0 79 44 70 55 ?12 29 76 18 0 70 0 55 0 0 .01 29 55 21 0 52 76 53 .08 0 .
01 17 79 0 46 48 47 52 75 80 0 78 +15 255 46 3 0 47 81 0 17 48 0 46 43 79 44 82
 83 0 64 +17 47 0 46 79 43 70 84 85 0 86 +16 80 7 0 ?79 83 85 87 0 0 12 17 78 0
 77 75 60 52 65 42 0 82 -15 77 82 0 60 88 0 17 60 0 77 78 41 59 58 89 0 65 +17 6
5 0 63 62 82 59 78 42 0 66 +16 42 76 0 ?65 29 90 37 0 0 12 17 82 0 63 65 64 52 4
8 83 0 0 -15 63 80 0 62 91 0 17 64 0 63 82 62 44 68 90 0 49 -16 83 10 0 ?48 50 8
0 92 0 0 12 16 50 13 0 ?43 93 83 94 0 0 12 30 92 11 0 83 87 94 0 +.08 0 .01 0 1
 0 30 87 8 0 80 95 92 0 +0 0 .01 1 0 0 30 94 14 0 50 92 96 0 +0 .01 .01 -1 0 0 3
0 96 69 0 97 94 98 0 +0 0 0 0 -1 0 16 97 57 0 ?99 89 0 96 0 0 12 30 98 68 0 89 9
6 100 0 +0 0 0 1 0 0 16 89 53 0 ?60 67 97 98 0 0 12 30 100 67 0 67 98 101 0 +.08
 0 0 0 1 0 16 67 49 0 ?62 73 89 100 0 0 12 30 101 66 0 73 100 102 0 +0 .01 0 -1
 0 0 16 73 45 0 ?69 85 67 101 0 0 12 30 102 90 0 93 101 103 0 +0 .01 .01 0 0 -1
 16 93 74 0 ?74 90 50 102 0 0 12 30 103 91 0 90 102 37 0 +.08 .01 .01 0 0 -1 16
 90 75 0 ?68 42 93 103 0 0 12 30 37 92 0 42 103 26 0 +.08 0 .01 0 0 -1 17 68 0 7
1 69 49 61 64 90 0 72 +15 71 78 0 69 104 0 17 49 0 71 68 51 44 43 50 0 0 -17 72
 0 105 66 106 61 69 73 0 0 -15 105 44 0 106 107 0 17 66 0 105 58 72 59 62 67 0 0
 -17 106 0 105 72 58 38 99 97 0 0 -17 58 0 105 106 66 56 60 89 0 41 -17 99 0 108
 86 74 56 106 97 0 0 +15 108 84 0 99 34 0 17 86 0 108 84 99 70 41 29 0 0 -17 74
 0 108 99 84 38 51 93 0 106 +17 84 0 108 74 86 30 47 85 0 0 -17 51 0 71 49 69 30
 74 93 0 84 -16 85 4 0 ?47 80 73 95 0 0 12 30 95 5 0 85 0 87 0 +0 0 .01 0 -1 0 1
7 41 0 77 60 75 56 86 29 0 99 +14 255 34 85 109 ?88 0 108 24 25 -0 0 88 0 40 81
 1 109 159 110 34 111 0 0 112 113 14 88 83 112 ?91 34 77 24 36 -0 0 91 34 40 13
 40 29 0 0 0 0 0 0 28 34 81 1 112 160 110 88 114 0 109 115 116 14 91 81 115 ?104
 88 63 24 117 -0 0 104 88 40 50 36 88 0 88 117 25 0 +0 0 .01 0 1 0 0 0 1 50 117
 87 0 91 118 36 0 +.08 0 .01 -1 0 0 0 0 1 50 118 86 0 104 119 117 0 +0 .01 .01 0
 -1 0 0 0 -1 14 104 79 120 ?81 91 71 24 118 -0 0 81 91 40 50 119 65 0 107 121 11
8 0 +0 0 0 0 0 -1 -1 0 0 14 107 43 122 ?0 81 105 24 119 +0 0 0 81 40 50 121 2 0
 81 0 119 0 +0 0 .01 0 0 -1 -1 0 0 14 81 1 123 ?107 104 46 24 121 -0 0 107 104 4
0 81 1 123 163 110 81 124 0 120 122 125 80 255 1 110 0 126 8001 0 0 0 0 3 5 0 0
 0 FFFFTFTFFFFFFF2 81 1 124 157 127 81 0 123 128 0 129 81 1 120 162 110 104 130
 0 115 123 131 81 1 122 164 110 107 128 0 123 0 132 83 255 3 125 1 1 1 81 1 128
 155 127 107 0 122 130 124 133 83 3 132 1 1 1 80 1 127 134 135 9000 1 1 1 1 1 1
 1 1 0 FFFFTFTFFFFFFF1 81 1 130 153 127 104 0 120 136 128 137 82 255 1 133 10531
63661 81 1 136 151 127 91 0 115 114 130 138 82 1 137 1054081165 81 1 115 161 110
 91 136 0 112 120 139 81 1 114 149 127 88 0 112 111 136 140 82 1 138 1054343309
 81 1 111 147 127 34 0 109 0 114 141 82 1 140 1054605453 82 1 141 1054867597 83
 3 139 1 1 1 79 255 14 135 SWEntUnchanged83 3 131 1 1 1 82 1 129 1047527565 79 1
5 126 SDL/TYSA_COLOUR83 3 116 1 1 1 83 3 113 1 1 1 19 35 95 0 12 0 28 24 S0 74 4
 CI16 index_map_offset0 0 1 dCCZ20 33 4 0 0 124 31 122 21 0 0 0 0 0 0 0 0 0 0 0
 0 0 0 0 0 81 2 31 132 142 12 0 21 0 0 143 0 80 2 142 144 145 8004 0 0 0 0 3 5 0
 0 0 FFTFFFFFFFFFFF2 3 83 1 143 1e3 79 16 145 SDL/TYSA_DENSITY80 1 5 146 147 801
7 0 0 0 0 0 0 0 0 0 TTTTTTTTTTTTTF3 84 255 3 32 rec79 13 147 SDL/TYSA_NAME81 1 1
0 159 5 7 148 0 0 0 149 70 11 0 4 T7 0 0 4 20 1 150 150 13 13 94 0 7 0 151 0 0 1
52 0 50 14 89 0 151 153 0 0 +0 0 .01 1 0 0 0 0 -1 30 15 93 0 18 154 0 0 +0 0 .01
 0 0 -1 29 16 70 0 155 156 0 0 .01 0 19 17 28 0 7 152 0 157 V0 16 18 77 0 ?158 0
 159 15 0 0 7 18 19 25 0 160 0 161 162 ?7 17 160 0 163 164 165 19 166 167 0 168
 +18 161 22 0 165 19 169 170 ?7 29 162 27 0 19 170 171 0 .01 .01 29 170 24 0 161
 172 162 .01 .01 .01 29 171 73 0 173 162 174 0 0 0 18 173 64 0 175 176 0 171 ?7
 29 174 72 0 176 171 156 .01 0 0 18 176 63 0 177 178 173 174 ?7 29 156 71 0 178
 174 16 .01 .01 0 18 178 62 0 179 155 176 156 ?7 17 179 0 180 181 182 178 183 18
4 0 185 +18 155 61 0 186 187 178 16 ?7 17 186 0 188 168 185 155 189 190 0 191 +1
8 187 16 0 192 169 155 193 ?7 17 192 0 194 158 195 187 196 197 0 164 -18 169 19
 0 196 161 187 172 ?7 29 193 18 0 187 0 172 0 0 .01 29 172 21 0 169 193 170 .01
 0 .01 17 196 0 163 165 164 169 192 197 0 195 +15 163 3 0 164 198 0 17 165 0 163
 160 196 161 199 200 0 181 +17 164 0 163 196 160 187 201 202 0 203 +16 197 7 0 ?
196 200 202 204 0 0 7 17 195 0 194 192 177 169 182 159 0 199 -15 194 82 0 177 20
5 0 17 177 0 194 195 158 176 175 206 0 182 +17 182 0 180 179 199 176 195 159 0 1
83 +16 159 76 0 ?182 18 207 154 0 0 7 17 199 0 180 182 181 169 165 200 0 0 -15 1
80 80 0 179 208 0 17 181 0 180 199 179 161 185 207 0 166 -16 200 10 0 ?165 167 1
97 209 0 0 7 16 167 13 0 ?160 210 200 211 0 0 7 30 209 11 0 200 204 211 0 +.01 0
 .01 0 1 0 30 204 8 0 197 212 209 0 +0 0 .01 1 0 0 30 211 14 0 167 209 213 0 +0
 .01 .01 -1 0 0 30 213 69 0 214 211 215 0 +0 0 0 0 -1 0 16 214 57 0 ?216 206 0 2
13 0 0 7 30 215 68 0 206 213 217 0 +0 0 0 1 0 0 16 206 53 0 ?177 184 214 215 0 0
 7 30 217 67 0 184 215 218 0 +.01 0 0 0 1 0 16 184 49 0 ?179 190 206 217 0 0 7 3
0 218 66 0 190 217 219 0 +0 .01 0 -1 0 0 16 190 45 0 ?186 202 184 218 0 0 7 30 2
19 90 0 210 218 220 0 +0 .01 .01 0 0 -1 16 210 74 0 ?191 207 167 219 0 0 7 30 22
0 91 0 207 219 154 0 +.01 .01 .01 0 0 -1 16 207 75 0 ?185 159 210 220 0 0 7 30 1
54 92 0 159 220 15 0 +.01 0 .01 0 0 -1 17 185 0 188 186 166 178 181 207 0 189 +1
5 188 78 0 186 221 0 17 166 0 188 185 168 161 160 167 0 0 -17 189 0 222 183 223
 178 186 190 0 0 -15 222 44 0 223 224 0 17 183 0 222 175 189 176 179 184 0 0 -17
 223 0 222 189 175 155 216 214 0 0 -17 175 0 222 223 183 173 177 206 0 158 -17 2
16 0 225 203 191 173 223 214 0 0 +15 225 84 0 216 151 0 17 203 0 225 201 216 187
 158 18 0 0 -17 191 0 225 216 201 155 168 210 0 223 +17 201 0 225 191 203 19 164
 202 0 0 -17 168 0 188 166 186 19 191 210 0 201 -16 202 4 0 ?164 197 190 212 0 0
 7 30 212 5 0 202 0 204 0 +0 0 .01 0 -1 0 17 158 0 194 177 192 173 203 18 0 216
 +14 151 85 226 ?205 0 225 13 14 -0 0 205 0 157 81 1 226 153 110 151 227 0 0 228
 229 14 205 83 228 ?208 151 194 13 153 -0 0 208 151 157 13 157 29 0 0 0 0 0 0 17
 151 81 1 228 154 110 205 230 0 226 231 232 14 208 81 231 ?221 205 180 13 233 -0
 0 221 205 157 50 153 88 0 205 233 14 0 +0 0 .01 0 1 0 0 0 1 50 233 87 0 208 234
 153 0 +.01 0 .01 -1 0 0 0 0 1 50 234 86 0 221 235 233 0 +0 .01 .01 0 -1 0 0 0 -
1 14 221 79 236 ?198 208 188 13 234 -0 0 198 208 157 50 235 65 0 224 237 234 0 +
0 0 0 0 0 -1 -1 0 0 14 224 43 238 ?0 198 222 13 235 +0 0 0 198 157 50 237 2 0 19
8 0 235 0 +0 0 .01 0 0 -1 -1 0 0 14 198 1 239 ?224 221 163 13 237 -0 0 224 221 1
57 81 1 239 157 110 198 240 0 236 238 241 81 1 240 151 127 198 0 239 242 0 243 8
1 1 236 156 110 221 244 0 231 239 245 81 1 238 158 110 224 242 0 239 0 246 83 3
 241 1 1 1 81 1 242 149 127 224 0 238 244 240 247 83 3 246 1 1 1 81 1 244 147 12
7 221 0 236 248 242 249 82 1 247 442105997 81 1 248 145 127 208 0 231 230 244 25
0 82 1 249 443023501 81 1 231 155 110 208 248 0 228 236 251 81 1 230 143 127 205
 0 228 227 248 252 82 1 250 443285645 81 1 227 141 127 151 0 226 0 230 253 82 1
 252 443547789 82 1 253 443809933 83 3 251 1 1 1 83 3 245 1 1 1 82 1 243 4364699
01 83 3 232 1 1 1 83 3 229 1 1 1 19 152 95 0 7 0 17 13 S0 74 20 150 4 0 0 240 14
8 238 10 0 0 0 0 0 0 0 0 0 0 0 0 0 0 0 0 81 2 148 132 142 7 0 10 0 0 254 0 83 1
 254 1e3 84 4 149 quad74 20 6 1 0 0 2 0 0 0 0 0 0 0 0 0 0 0 0 0 0 0 0 0 0 0 1 0
 
