**ABCDEFGHIJKLMNOPQRSTUVWXYZabcdefghijklmnopqrstuvwxyz**************************
**PARASOLID !"#$%&'()*+,-./:;<=>?@[\]^_`{|}~0123456789**************************
**PART1;
MC=AMD64;
MC_MODEL=Intel64 Family 6 Model 60 Stepping 3, GenuineIntel;
MC_ID=unknown;
OS=Windows_NT;
OS_RELEASE=unknown;
FRU=Parasolid Version 28.0, build 191,  8-24-2015;
APPL=SOLIDWORKS 2016-2015334;
SITE=;
USER=unknown;
FORMAT=text;
GUISE=transmit;
KEY=7.8.3;
FILE=7.8.3.x_t;
DATE=Sun Mar 29 19:24:40 2020;
**PART2;
SCH=SCH_2800191_28002;
USFLD_SIZE=0;
**PART3;
**END_OF_HEADER*****************************************************************
T51 : TRANSMIT FILE created by modeller version 280019123 SCH_2800191_28002_1300
6200 0 12 30 CCCCCCCCCCCCCDI5 owner1040 0 CCCCCCCCCA13 boundary_mesh1006 0 A16 i
ndex_map_offset0 0 1 dA9 index_map82 0 A17 node_id_index_map82 0 A20 schema_embe
dding_map82 0 A5 child12 0 A14 lowest_node_id0 0 1 dZ1 260 2 3 0 0 0 0 1e3 1e-8
 0 4 0 1 0 1 1 5 6 7 0 8 9 0 0 0 0 0 0 0 0 81 255 2 2 207 10 1 0 0 0 0 11 0 70 1
1 CI9 list_type0 0 1 uI10 notransmit0 0 1 lCCCDCCDI12 finger_index0 0 1 dI12 fin
ger_block1012 0 CZ3 0 4 T1 0 0 3 20 1 12 12 13 255 5 53 0 1 13 14 0 0 15 0 50 25
5 6 106 0 14 16 0 0 +.0925 -.03 0 0 1 0 0 0 1 31 255 7 112 0 9 17 0 0 +.05 -.03
 0 0 1 0 0 0 1 .0425 19 8 CCCCCCCA5 owner12 0 Z8 57 0 1 15 0 18 V0 16 255 9 91 0
 ?19 0 20 7 0 0 1 17 255 19 0 21 19 19 0 22 9 0 0 +16 20 86 0 ?23 9 24 17 0 0 1
 17 23 0 25 23 23 0 26 20 0 0 +16 24 81 0 ?27 20 28 29 0 0 1 31 17 111 0 20 29 7
 0 +.05 -.035 0 0 1 0 0 0 1 .0425 31 29 110 0 24 30 17 0 +.05 -.035 0 0 1 0 0 0
 1 .05 31 30 109 0 28 31 29 0 +.05 -.235 0 0 1 0 0 0 1 .05 16 28 76 0 ?32 24 33
 30 0 0 1 31 31 108 0 33 34 30 0 +.05 0 0 0 1 0 0 0 1 .05 16 33 61 0 ?35 28 36 3
1 0 0 1 31 34 107 0 36 37 31 0 +.05 -.03 0 0 1 0 0 0 1 .05 16 36 59 0 ?38 33 39
 34 0 0 1 31 37 194 0 40 41 34 0 +.05 -.215 0 0 -1 0 0 0 -1 .035 16 40 171 0 ?42
 39 0 37 0 0 1 31 41 195 0 39 0 37 0 +.05 -.065 0 0 -1 0 0 0 -1 .035 16 39 174 0
 ?43 36 40 41 0 0 1 17 43 0 44 43 43 0 45 39 0 0 +15 255 44 184 0 43 46 0 17 45
 0 47 45 45 0 43 39 0 0 -15 47 180 0 45 48 49 14 255 48 177 50 ?46 0 47 13 51 -0
 0 46 0 52 15 49 181 0 42 48 0 17 42 0 49 42 42 0 53 40 0 0 +17 53 0 54 53 53 0
 42 40 0 0 -15 54 187 0 53 55 0 14 55 185 56 ?0 46 54 13 57 -0 0 0 46 52 81 1 56
 252 58 55 59 0 50 60 61 14 46 182 60 ?55 48 44 13 62 +0 0 55 48 52 13 13 169 0
 1 0 48 0 0 15 0 50 57 192 0 55 62 51 0 +.05 -.215 0 0 -1 0 0 0 -1 13 52 189 0 0
 0 0 0 0 63 48 19 63 188 0 1 0 15 52 V0 19 15 52 0 1 63 8 5 S0 50 62 193 0 46 0
 57 0 +.05 -.065 0 0 -1 0 0 0 -1 51 255 51 191 0 48 57 64 0 +.05 -.065 0 0 -1 0
 .035 0 0 -1 51 64 100 0 65 51 66 0 -.05 0 0 0 1 0 .05 0 0 1 14 65 64 67 ?0 68 6
9 5 64 -0 0 0 68 18 50 66 101 0 68 64 70 0 +.05 0 0 0 -1 0 0 0 -1 14 68 69 71 ?6
5 72 73 5 66 -0 0 65 72 18 50 70 102 0 72 66 74 0 +.05 -.235 0 0 1 0 0 0 1 14 72
 79 75 ?68 76 77 5 70 -0 0 68 76 18 51 74 103 0 76 70 78 0 -.05 0 0 0 1 0 .05 0
 0 1 14 76 84 79 ?72 80 81 5 74 -0 0 72 80 18 50 78 104 0 80 74 16 0 +.0925 -.03
5 0 0 -1 0 0 0 -1 14 80 89 82 ?76 83 84 5 78 -0 0 76 83 18 51 16 105 0 83 78 6 0
 -.05 0 0 0 1 0 .0425 0 0 1 14 83 94 85 ?80 14 86 5 16 -0 0 80 14 18 81 1 85 259
 58 83 87 0 82 88 89 14 14 97 88 ?83 0 90 5 6 -0 0 83 0 18 15 86 141 0 22 83 25
 13 18 56 0 0 0 0 0 0 8 14 17 22 0 86 22 22 0 19 9 0 0 -15 25 93 0 23 83 0 81 1
 88 260 58 14 91 0 85 0 92 15 90 147 0 93 14 21 17 93 0 90 93 93 0 38 36 0 0 -15
 21 96 0 19 14 0 17 38 0 94 38 38 0 93 36 0 0 +15 94 63 0 38 65 0 80 255 1 58 95
 96 9000 1 1 1 1 1 1 1 1 0 FFFFTFTFFFFFFF1 81 1 91 219 97 14 0 88 0 87 98 82 255
 1 92 -2036596581 80 1 97 0 99 8001 0 0 0 0 3 5 0 0 0 FFFFTFTFFFFFFF2 81 1 87 22
0 97 83 0 85 91 100 101 83 255 3 98 1 1 1 81 1 100 221 97 80 0 82 87 102 103 83
 3 101 1 1 1 81 1 82 258 58 80 100 0 79 85 104 81 1 102 222 97 76 0 79 100 105 1
06 83 3 103 1 1 1 81 1 79 257 58 76 102 0 75 82 107 81 1 105 223 97 72 0 75 102
 108 109 83 3 106 1 1 1 81 1 75 256 58 72 105 0 71 79 110 81 1 108 224 97 68 0 7
1 105 111 112 83 3 109 1 1 1 81 1 71 255 58 68 108 0 67 75 113 81 1 111 225 97 6
5 0 67 108 114 115 83 3 112 1 1 1 81 1 67 254 58 65 111 0 60 71 116 81 1 114 226
 97 48 0 50 111 117 118 83 3 115 1 1 1 81 1 50 251 58 48 114 0 0 56 119 81 1 117
 227 97 46 0 60 114 59 120 83 3 118 1 1 1 81 1 60 253 58 46 117 0 56 67 121 81 1
 59 228 97 55 0 56 117 0 122 83 3 120 1 1 1 83 3 122 1 1 1 82 1 121 1607467178 8
2 1 119 1609433258 82 1 116 -2040463205 82 1 113 -2039873381 82 1 110 -203869373
3 82 1 107 -2038103909 82 1 104 -2037514085 79 255 15 99 SDL/TYSA_COLOUR79 14 96
 SWEntUnchanged82 1 89 -2036924261 15 84 142 0 26 80 123 17 26 0 84 26 26 0 23 2
0 0 0 -15 123 88 0 27 80 0 17 27 0 123 27 27 0 124 24 0 0 +17 124 0 81 124 124 0
 27 24 0 0 -15 81 143 0 124 76 125 15 125 83 0 32 76 0 17 32 0 125 32 32 0 126 2
8 0 0 +17 126 0 77 126 126 0 32 28 0 0 -15 77 144 0 126 72 0 15 73 68 0 35 68 0
 17 35 0 73 35 35 0 127 33 0 0 +17 127 0 69 127 127 0 35 33 0 0 -15 69 146 0 127
 65 94 82 1 61 1609171114 74 4 CI16 index_map_offset0 0 1 dCCZ20 12 3 0 0 88 2 5
9 0 0 0 0 0 0 0 0 0 0 0 0 0 0 0 0 0 80 2 10 128 129 8004 0 0 0 0 3 5 0 0 0 FFTFF
FFFFFFFFF2 3 83 1 11 1e3 79 16 129 SDL/TYSA_DENSITY1 0 
