**ABCDEFGHIJKLMNOPQRSTUVWXYZabcdefghijklmnopqrstuvwxyz**************************
**PARASOLID !"#$%&'()*+,-./:;<=>?@[\]^_`{|}~0123456789**************************
**PART1;
MC=AMD64;
MC_MODEL=Intel64 Family 6 Model 60 Stepping 3, GenuineIntel;
MC_ID=unknown;
OS=Windows_NT;
OS_RELEASE=unknown;
FRU=Parasolid Version 28.0, build 191,  8-24-2015;
APPL=SOLIDWORKS 2016-2015334;
SITE=;
USER=unknown;
FORMAT=text;
GUISE=transmit;
KEY=7.8.2;
FILE=7.8.2.x_t;
DATE=Sun Mar 29 14:01:19 2020;
**PART2;
SCH=SCH_2800191_28002;
USFLD_SIZE=0;
**PART3;
**END_OF_HEADER*****************************************************************
T51 : TRANSMIT FILE created by modeller version 280019123 SCH_2800191_28002_1300
6200 0 12 30 CCCCCCCCCCCCCDI5 owner1040 0 CCCCCCCCCA13 boundary_mesh1006 0 A16 i
ndex_map_offset0 0 1 dA9 index_map82 0 A17 node_id_index_map82 0 A20 schema_embe
dding_map82 0 A5 child12 0 A14 lowest_node_id0 0 1 dZ1 207 2 3 0 0 0 0 1e3 1e-8
 0 4 0 1 0 1 1 5 6 7 0 8 9 0 0 0 0 0 0 0 0 81 255 2 2 169 10 1 0 0 0 0 11 0 70 1
1 CI9 list_type0 0 1 uI10 notransmit0 0 1 lCCCDCCDI12 finger_index0 0 1 dI12 fin
ger_block1012 0 CZ3 0 4 T1 0 0 3 20 1 12 12 13 255 5 53 0 1 0 13 0 0 14 0 50 255
 6 106 0 13 15 0 0 +.0925 -.03 0 0 1 0 0 0 1 31 255 7 112 0 9 16 0 0 +.05 -.03 0
 0 1 0 0 0 1 .0425 19 8 CCCCCCCA5 owner12 0 Z8 57 0 1 14 0 17 V0 16 255 9 91 0 ?
18 0 19 7 0 0 1 17 255 18 0 20 18 18 0 21 9 0 0 +16 19 86 0 ?22 9 23 16 0 0 1 17
 22 0 24 22 22 0 25 19 0 0 +16 23 81 0 ?26 19 27 28 0 0 1 31 16 111 0 19 28 7 0
 +.05 -.035 0 0 1 0 0 0 1 .0425 31 28 110 0 23 29 16 0 +.05 -.035 0 0 1 0 0 0 1
 .05 31 29 109 0 27 30 28 0 +.05 -.235 0 0 1 0 0 0 1 .05 16 27 76 0 ?31 23 32 29
 0 0 1 31 30 108 0 32 33 29 0 +.05 0 0 0 1 0 0 0 1 .05 16 32 61 0 ?34 27 35 30 0
 0 1 31 33 107 0 35 0 30 0 +.05 -.03 0 0 1 0 0 0 1 .05 16 35 59 0 ?36 32 0 33 0
 0 1 17 36 0 37 36 36 0 38 35 0 0 +15 255 37 63 0 36 39 0 17 38 0 40 38 38 0 36
 35 0 0 -15 40 147 0 38 13 20 14 255 13 97 41 ?42 0 40 5 6 -0 0 42 0 17 15 20 96
 0 18 13 0 81 1 41 201 43 13 44 0 0 45 46 14 42 94 45 ?47 13 48 5 15 -0 0 47 13
 17 13 17 56 0 0 0 0 0 0 8 13 81 1 45 202 43 42 49 0 41 50 51 14 47 89 50 ?52 42
 53 5 54 -0 0 52 42 17 15 48 141 0 21 42 24 51 255 15 105 0 42 54 6 0 -.05 0 0 0
 1 0 .0425 0 0 1 50 54 104 0 47 55 15 0 +.0925 -.035 0 0 -1 0 0 0 -1 51 55 103 0
 52 56 54 0 -.05 0 0 0 1 0 .05 0 0 1 14 52 84 57 ?58 47 59 5 55 -0 0 58 47 17 50
 56 102 0 58 60 55 0 +.05 -.235 0 0 1 0 0 0 1 14 58 79 61 ?62 52 63 5 56 -0 0 62
 52 17 50 60 101 0 62 64 56 0 +.05 0 0 0 -1 0 0 0 -1 14 62 69 65 ?39 58 66 5 60
 -0 0 39 58 17 51 64 100 0 39 0 60 0 -.05 0 0 0 1 0 .05 0 0 1 14 39 64 67 ?0 62
 68 5 64 -0 0 0 62 17 81 1 67 207 43 39 69 0 65 0 70 15 68 146 0 71 39 37 17 71
 0 68 71 71 0 34 32 0 0 -17 34 0 66 34 34 0 71 32 0 0 +15 66 68 0 34 62 0 80 255
 1 43 72 73 9000 1 1 1 1 1 1 1 1 0 FFFFTFTFFFFFFF1 81 1 69 184 74 39 0 67 75 0 7
6 81 1 65 206 43 62 75 0 61 67 77 82 255 1 70 -338624364 81 1 75 183 74 62 0 65
 78 69 79 81 1 61 205 43 58 78 0 57 65 80 82 1 77 -338034540 81 1 78 182 74 58 0
 61 81 75 82 81 1 57 204 43 52 81 0 50 61 83 82 1 80 -336854892 81 1 81 181 74 5
2 0 57 84 78 85 81 1 50 203 43 47 84 0 45 57 86 82 1 83 -336265068 81 1 84 180 7
4 47 0 50 49 81 87 82 1 86 -335675244 80 1 74 0 88 8001 0 0 0 0 3 5 0 0 0 FFFFTF
TFFFFFFF2 81 1 49 179 74 42 0 45 44 84 89 83 255 3 87 1 1 1 81 1 44 178 74 13 0
 41 0 49 90 83 3 89 1 1 1 83 3 90 1 1 1 79 255 15 88 SDL/TYSA_COLOUR83 3 85 1 1
 1 83 3 82 1 1 1 83 3 79 1 1 1 83 3 76 1 1 1 79 14 73 SWEntUnchanged15 63 144 0
 91 58 0 17 91 0 63 91 91 0 31 27 0 0 -17 31 0 92 31 31 0 91 27 0 0 +15 92 83 0
 31 52 0 15 59 143 0 93 52 92 17 93 0 59 93 93 0 26 23 0 0 -17 26 0 94 26 26 0 9
3 23 0 0 +15 94 88 0 26 47 0 17 21 0 48 21 21 0 18 9 0 0 -15 24 93 0 22 42 0 15
 53 142 0 25 47 94 17 25 0 53 25 25 0 22 19 0 0 -82 1 51 -335085420 82 1 46 -334
757740 19 14 52 0 1 0 8 5 S0 74 4 CI16 index_map_offset0 0 1 dCCZ20 12 3 0 0 67
 2 69 0 0 0 0 0 0 0 0 0 0 0 0 0 0 0 0 0 80 2 10 95 96 8004 0 0 0 0 3 5 0 0 0 FFT
FFFFFFFFFFF2 3 83 1 11 1e3 79 16 96 SDL/TYSA_DENSITY1 0 
