**ABCDEFGHIJKLMNOPQRSTUVWXYZabcdefghijklmnopqrstuvwxyz**************************
**PARASOLID !"#$%&'()*+,-./:;<=>?@[\]^_`{|}~0123456789**************************
**PART1;
MC=AMD64;
MC_MODEL=Intel64 Family 6 Model 158 Stepping 9, GenuineIntel;
MC_ID=unknown;
OS=Windows_NT;
OS_RELEASE=unknown;
FRU=Parasolid Version 28.0, build 191,  8-24-2015;
APPL=SOLIDWORKS 2016-2015334;
SITE=;
USER=unknown;
FORMAT=text;
GUISE=transmit;
KEY=crankrodsld;
FILE=crankrodsld.x_t;
DATE=Sat Aug 11 16:23:56 2018;
**PART2;
SCH=SCH_2800191_28002;
USFLD_SIZE=0;
**PART3;
**END_OF_HEADER*****************************************************************
T51 : TRANSMIT FILE created by modeller version 280019123 SCH_2800191_28002_1300
6200 0 10 255 1 9 2 3 0 0 0 0 0 1e3 1e-8 0 0 0 1 0 1 4 81 255 1 2 9 5 1 0 0 0 0
 0 70 11 CI9 list_type0 0 1 uI10 notransmit0 0 1 lCCCDCCDI12 finger_index0 0 1 d
I12 finger_block1012 0 CZ3 0 4 T1 0 0 1 20 1 6 6 11 255 4 7 0 1 7 8 1 9 0 0 0 12
 30 CCCCCCCCCCCCCDI5 owner1040 0 CCCCCCCCCA13 boundary_mesh1006 0 A16 index_map_
offset0 0 1 dA9 index_map82 0 A17 node_id_index_map82 0 A20 schema_embedding_map
82 0 A5 child12 0 A14 lowest_node_id0 0 1 dZ7 211 10 11 0 0 0 0 1e3 1e-8 4 12 0
 1 0 1 1 13 14 15 16 17 18 19 0 0 0 0 0 0 0 100 255 8 8 4 0 0 1 0 0 0 1 0 0 0 1
 .02551118781619365 .002152807740701755 .1619999999999765 1 1 ?11 9 5 0 1 12 20
 1 21 4 0 0 12 12 257 22 23 0 0 0 0 1e3 1e-8 9 24 7 1 0 1 1 25 26 27 28 29 30 31
 0 0 0 0 0 0 0 100 20 6 9 0 0 1 0 0 0 1 0 0 0 1 -.01448881218380634 .00215280774
070176 .1639999999999765 1 1 ?11 21 3 0 1 24 32 1 33 9 0 0 12 24 249 34 35 0 0 0
 0 1e3 1e-8 21 36 12 1 0 1 1 37 38 39 40 41 42 43 0 0 0 0 0 0 0 100 32 4 21 0 0
 1 3469446951953615e-32 0 3469446951953615e-32 -1 0 0 0 -1 -.03448881218380635 .
002152807740701755 .1639999999999765 1 3 ?11 33 1 0 1 36 44 1 0 21 0 0 12 36 213
 45 46 0 0 0 0 1e3 1e-8 33 47 24 1 0 1 1 48 49 50 51 52 53 54 0 0 0 0 0 0 0 100
 44 2 33 0 0 1 0 0 0 1 0 0 0 1 -.0744888121838064 -.03534719225929825 .159999999
9999765 1 1 ?81 1 45 213 5 36 55 0 0 0 56 70 46 0 4 T36 0 0 4 20 1 57 57 13 255
 48 94 0 36 0 58 0 0 59 0 50 255 49 89 0 58 60 0 0 +0 0 .002 1 0 0 0 0 -1 30 255
 50 93 0 53 61 0 0 +0 0 .002 0 0 -1 29 255 51 70 0 62 63 0 0 .075 0 19 8 CCCCCCC
A5 owner12 0 Z52 28 0 36 59 0 64 V0 16 255 53 77 0 ?65 0 66 50 0 0 36 18 255 54
 25 0 67 0 68 69 ?36 17 255 67 0 70 71 72 54 73 74 0 75 +18 68 22 0 72 54 76 77
 ?36 29 69 27 0 54 77 78 0 .075 .002 29 77 24 0 68 79 69 .12 .075 .002 29 78 73
 0 80 69 81 0 0 0 18 80 64 0 82 83 0 78 ?36 29 81 72 0 83 78 63 .12 0 0 18 83 63
 0 84 85 80 81 ?36 29 63 71 0 85 81 51 .12 .075 0 18 85 62 0 86 62 83 63 ?36 17
 86 0 87 88 89 85 90 91 0 92 +18 62 61 0 93 94 85 51 ?36 17 93 0 95 75 92 62 96
 97 0 98 +18 94 16 0 99 76 62 100 ?36 17 99 0 101 65 102 94 103 104 0 71 -18 76
 19 0 103 68 94 79 ?36 29 100 18 0 94 0 79 0 0 .002 29 79 21 0 76 100 77 .12 0 .
002 17 103 0 70 72 71 76 99 104 0 102 +15 255 70 3 0 71 105 0 17 72 0 70 67 103
 68 106 107 0 88 +17 71 0 70 103 67 94 108 109 0 110 +16 104 7 0 ?103 107 109 11
1 0 0 36 17 102 0 101 99 84 76 89 66 0 106 -15 101 82 0 84 112 0 17 84 0 101 102
 65 83 82 113 0 89 +17 89 0 87 86 106 83 102 66 0 90 +16 66 76 0 ?89 53 114 61 0
 0 36 17 106 0 87 89 88 76 72 107 0 0 -15 87 80 0 86 115 0 17 88 0 87 106 86 68
 92 114 0 73 -16 107 10 0 ?72 74 104 116 0 0 36 16 74 13 0 ?67 117 107 118 0 0 3
6 30 116 11 0 107 111 118 0 +.12 0 .002 0 1 0 30 111 8 0 104 119 116 0 +0 0 .002
 1 0 0 30 118 14 0 74 116 120 0 +0 .075 .002 -1 0 0 30 120 69 0 121 118 122 0 +0
 0 0 0 -1 0 16 121 57 0 ?123 113 124 120 0 0 36 30 122 68 0 113 120 125 0 +0 0 0
 1 0 0 16 113 53 0 ?84 91 121 122 0 0 36 30 125 67 0 91 122 126 0 +.12 0 0 0 1 0
 16 91 49 0 ?86 97 113 125 0 0 36 30 126 66 0 97 125 127 0 +0 .075 0 -1 0 0 16 9
7 45 0 ?93 109 91 126 0 0 36 30 127 90 0 117 126 128 0 +0 .075 .002 0 0 -1 16 11
7 74 0 ?98 114 74 127 0 0 36 30 128 91 0 114 127 61 0 +.12 .075 .002 0 0 -1 16 1
14 75 0 ?92 66 117 128 0 0 36 30 61 92 0 66 128 50 0 +.12 0 .002 0 0 -1 17 92 0
 95 93 73 85 88 114 0 96 +15 95 78 0 93 129 0 17 73 0 95 92 75 68 67 74 0 0 -17
 96 0 130 90 131 85 93 97 0 0 -15 130 44 0 131 132 0 17 90 0 130 82 96 83 86 91
 0 0 -17 131 0 130 96 82 62 123 121 0 0 -17 82 0 130 131 90 80 84 113 0 65 -17 1
23 0 133 110 98 80 131 121 0 0 +15 133 84 0 123 58 0 17 110 0 133 108 123 94 65
 53 0 0 -17 98 0 133 123 108 62 75 117 0 131 +17 108 0 133 98 110 54 71 109 0 0
 -17 75 0 95 73 93 54 98 117 0 108 -16 109 4 0 ?71 104 97 119 0 0 36 30 119 5 0
 109 134 111 0 +0 0 .002 0 -1 0 31 255 134 170 0 135 136 119 0 +.04 .0375 .002 0
 0 1 1 0 0 .003 16 135 151 0 ?137 124 0 134 0 0 36 31 136 171 0 124 0 134 0 +.04
 .0375 0 0 0 1 1 0 0 .003 16 124 148 0 ?138 121 135 136 0 0 36 17 138 0 139 138
 138 0 140 124 0 0 +15 139 137 0 138 132 130 17 140 0 141 140 140 0 138 124 0 0
 -15 141 157 0 140 142 143 14 255 142 154 144 ?0 132 141 48 145 -0 0 0 132 64 15
 143 158 0 137 142 0 17 137 0 143 137 137 0 146 135 0 0 +17 146 0 147 146 146 0
 137 135 0 0 -15 147 142 0 146 105 70 14 105 1 148 ?132 129 147 48 149 -0 0 132
 129 64 81 1 148 210 150 105 151 0 152 153 154 14 132 43 153 ?142 105 139 48 155
 +0 0 142 105 64 14 129 79 152 ?105 115 95 48 156 -0 0 105 115 64 50 149 2 0 105
 145 155 0 +0 0 .002 0 0 -1 -1 0 0 13 64 29 0 0 0 0 0 0 52 58 14 58 85 157 ?112
 0 133 48 49 -0 0 112 0 64 81 1 157 206 150 58 158 0 0 159 160 14 112 83 159 ?11
5 58 101 48 60 -0 0 115 58 64 81 1 159 207 150 112 161 0 157 162 163 14 115 81 1
62 ?129 112 87 48 164 -0 0 129 112 64 50 60 88 0 112 164 49 0 +0 0 .002 0 1 0 0
 0 1 50 164 87 0 115 156 60 0 +.12 0 .002 -1 0 0 0 0 1 50 156 86 0 129 155 164 0
 +0 .075 .002 0 -1 0 0 0 -1 50 155 65 0 132 149 156 0 +0 0 0 0 0 -1 -1 0 0 81 1
 162 208 150 115 165 0 159 152 166 80 255 1 150 0 167 8001 0 0 0 0 3 5 0 0 0 FFF
FTFTFFFFFFF2 81 1 165 204 168 115 0 162 161 0 169 81 1 152 209 150 129 170 0 162
 148 171 83 255 3 166 1 1 1 81 1 170 198 168 129 0 152 172 158 173 83 3 171 1 1
 1 80 1 168 174 175 9000 1 1 1 1 1 1 1 1 0 FFFFTFTFFFFFFF1 81 1 172 196 168 132
 0 153 151 170 176 81 1 158 200 168 58 0 157 170 161 177 82 255 1 173 -116693385
0 81 1 161 202 168 112 0 159 158 165 178 82 1 177 -1166147418 82 1 178 -11664095
62 81 1 153 211 150 132 172 0 148 144 179 81 1 151 194 168 105 0 148 180 172 181
 82 1 176 -1167851351 81 1 180 192 168 142 0 144 0 151 182 82 1 181 -1173487447
 81 1 144 212 150 142 180 0 153 0 183 82 1 182 -1152581463 83 3 183 1 1 1 83 3 1
79 1 1 1 79 255 14 175 SWEntUnchanged82 1 169 -1166671706 79 15 167 SDL/TYSA_COL
OUR83 3 163 1 1 1 83 3 160 1 1 1 51 255 145 167 0 142 0 149 0 +.04 .0375 0 0 0 1
 .003 1 0 0 83 3 154 1 1 1 17 65 0 101 84 99 80 110 53 0 123 +19 59 95 0 36 0 52
 48 S0 74 4 CI16 index_map_offset0 0 1 dCCZ20 57 4 0 0 165 55 144 45 0 0 0 0 0 0
 0 0 0 0 0 0 0 0 0 0 81 2 55 182 184 36 0 45 0 0 185 0 80 2 184 186 187 8004 0 0
 0 0 3 5 0 0 0 FFTFFFFFFFFFFF2 3 83 1 185 1e3 79 16 187 SDL/TYSA_DENSITY80 1 5 1
88 189 8017 0 0 0 0 0 0 0 0 0 TTTTTTTTTTTTTF3 84 255 6 56 ground79 13 189 SDL/TY
SA_NAME81 1 34 249 5 24 190 0 0 0 191 70 35 0 4 T24 0 0 4 20 1 192 192 13 37 94
 0 24 0 193 0 0 194 0 51 38 89 0 195 196 0 0 -0 0 .002 0 0 -1 .005 -1 0 0 30 39
 93 0 42 197 0 0 +0 -.005 .002 0 0 -1 29 40 70 0 198 199 0 0 .005 0 19 41 28 0 2
4 194 0 200 V0 16 42 77 0 ?201 0 202 39 0 0 24 18 43 25 0 203 0 204 205 ?24 17 2
03 0 206 207 208 43 209 210 0 211 +18 204 22 0 208 43 212 213 ?24 29 205 27 0 43
 213 214 0 .005 .002 29 213 24 0 204 215 205 .02 .005 .002 29 214 73 0 216 205 2
17 0 -.005 0 18 216 64 0 218 219 0 214 ?24 29 217 72 0 219 214 199 .02 -.005 0 1
8 219 63 0 220 221 216 217 ?24 29 199 71 0 221 217 40 .02 .005 0 18 221 62 0 222
 198 219 199 ?24 17 222 0 223 224 225 221 226 227 0 228 +18 198 61 0 229 230 221
 40 ?24 17 229 0 231 211 228 198 232 233 0 234 +18 230 16 0 235 212 198 236 ?24
 17 235 0 237 201 238 230 239 240 0 207 -18 212 19 0 239 204 230 215 ?24 29 236
 18 0 230 0 215 0 -.005 .002 29 215 21 0 212 236 213 .02 -.005 .002 17 239 0 206
 208 207 212 235 240 0 238 +15 206 3 0 207 193 241 17 208 0 206 203 239 204 242
 243 0 224 +17 207 0 206 239 203 230 244 245 0 246 +16 240 7 0 ?239 243 245 247
 0 0 24 17 238 0 237 235 220 212 225 202 0 242 -15 237 82 0 220 248 0 17 220 0 2
37 238 201 219 218 249 0 225 +17 225 0 223 222 242 219 238 202 0 226 +16 202 76
 0 ?225 42 250 197 0 0 24 17 242 0 223 225 224 212 208 243 0 0 -15 223 80 0 222
 251 0 17 224 0 223 242 222 204 228 250 0 209 -16 243 10 0 ?208 210 240 252 0 0
 24 16 210 13 0 ?203 253 243 254 0 0 24 31 252 11 0 243 247 254 0 +.02 0 .002 0
 0 1 1 0 0 .005 30 247 8 0 240 255 252 0 +0 -.005 .002 1 -433680868994202e-31 0
 30 254 14 0 210 252 256 0 +0 .005 .002 -1 -433680868994202e-31 0 31 256 69 0 25
7 254 258 0 +0 0 0 0 0 1 1 0 0 .005 16 257 57 0 ?259 249 260 256 0 0 24 30 258 6
8 0 249 256 261 0 +0 -.005 0 1 -433680868994202e-31 0 16 249 53 0 ?220 227 257 2
58 0 0 24 31 261 67 0 227 258 262 0 +.02 0 0 0 0 1 1 0 0 .005 16 227 49 0 ?222 2
33 249 261 0 0 24 30 262 66 0 233 261 263 0 +0 .005 0 -1 -433680868994202e-31 0
 16 233 45 0 ?229 245 227 262 0 0 24 30 263 90 0 253 262 264 0 +0 .005 .002 0 0
 -1 16 253 74 0 ?234 250 210 263 0 0 24 30 264 91 0 250 263 197 0 +.02 .005 .002
 0 0 -1 16 250 75 0 ?228 202 253 264 0 0 24 30 197 92 0 202 264 39 0 +.02 -.005
 .002 0 0 -1 17 228 0 231 229 209 221 224 250 0 232 +15 231 78 0 229 265 0 17 20
9 0 231 228 211 204 203 210 0 0 -17 232 0 266 226 267 221 229 233 0 0 -15 266 44
 0 267 268 269 17 226 0 266 218 232 219 222 227 0 0 -17 267 0 266 232 218 198 25
9 257 0 0 -17 218 0 266 267 226 216 220 249 0 201 -17 259 0 270 246 234 216 267
 257 0 0 +15 270 84 0 259 195 0 17 246 0 270 244 259 230 201 42 0 0 -17 234 0 27
0 259 244 198 211 253 0 267 +17 244 0 270 234 246 43 207 245 0 0 -17 211 0 231 2
09 229 43 234 253 0 244 -16 245 4 0 ?207 240 233 255 0 0 24 31 255 5 0 245 271 2
47 0 +0 0 .002 0 0 1 1 0 0 .005 31 271 142 0 272 273 255 0 +.02 0 0 0 0 1 1 0 0
 .003 16 272 120 0 ?274 260 275 271 0 0 24 31 273 143 0 260 276 271 0 +.02 0 .00
2 0 0 1 1 0 0 .003 16 260 123 0 ?277 257 272 273 0 0 24 31 276 180 0 278 279 273
 0 +0 0 0 0 0 1 1 0 0 .003 16 278 158 0 ?280 275 0 276 0 0 24 31 279 181 0 275 0
 276 0 +0 0 .002 0 0 1 1 0 0 .003 16 275 161 0 ?281 272 278 279 0 0 24 17 281 0
 282 281 281 0 283 275 0 0 +15 282 167 0 281 284 285 17 283 0 241 283 283 0 281
 275 0 0 -15 241 152 0 283 193 0 14 193 155 286 ?268 0 287 37 288 +0 0 268 0 200
 81 1 286 241 150 193 289 0 0 290 291 14 268 149 290 ?195 193 266 37 292 -0 0 19
5 193 200 15 287 114 0 293 193 206 50 288 2 0 193 294 292 0 +0 0 .002 0 0 1 1 0
 0 13 200 29 0 0 0 0 0 0 41 193 51 294 139 0 295 296 288 0 -.02 0 .002 0 0 -1 .0
03 -1 0 0 50 292 65 0 268 288 297 0 +0 0 0 0 0 1 1 0 0 50 297 86 0 265 292 298 0
 +0 .005 .002 433680868994202e-31 -1 0 1 433680868994202e-31 0 14 265 79 299 ?29
5 251 231 37 297 -0 0 295 251 200 51 298 87 0 251 297 196 0 -.02 0 .002 0 0 -1 .
005 -1 0 0 14 251 81 300 ?265 248 223 37 298 -0 0 265 248 200 50 196 88 0 248 29
8 38 0 +0 -.005 .002 433680868994202e-31 1 0 -1 433680868994202e-31 0 14 248 83
 301 ?251 195 237 37 196 -0 0 251 195 200 81 1 301 244 150 248 302 0 303 300 304
 14 195 85 303 ?248 268 270 37 38 -0 0 248 268 200 81 1 303 243 150 195 305 0 29
0 301 306 81 1 305 235 168 195 0 303 302 307 308 81 1 290 242 150 268 309 0 286
 303 310 83 3 306 1 1 1 81 1 309 227 168 268 0 290 289 311 312 83 3 310 1 1 1 81
 1 289 225 168 193 0 286 0 309 313 81 1 311 229 168 265 0 299 309 314 315 82 1 3
12 -1507131248 81 1 299 246 150 265 311 0 300 316 317 81 1 314 231 168 251 0 300
 311 302 318 82 1 315 -1515716464 81 1 300 245 150 251 314 0 301 299 319 81 1 30
2 233 168 248 0 301 314 305 320 82 1 318 -1515454320 82 1 320 -1515192176 83 3 3
19 1 1 1 81 1 316 247 150 295 307 0 299 321 322 83 3 317 1 1 1 14 295 126 316 ?2
84 265 323 37 294 +0 0 284 265 200 81 1 307 237 168 295 0 316 305 324 325 81 1 3
21 248 150 284 324 0 316 0 326 83 3 322 1 1 1 14 284 164 321 ?0 295 282 37 296 +
0 0 0 295 200 81 1 324 239 168 284 0 321 307 0 327 83 3 326 1 1 1 82 1 327 -1510
145904 51 296 177 0 284 0 294 0 -0 0 .002 0 0 -1 .003 -1 0 0 82 1 325 -152594008
0 15 323 129 0 277 295 328 17 277 0 323 277 277 0 293 260 0 0 +15 328 130 0 329
 295 0 17 329 0 328 329 329 0 274 272 0 0 -17 274 0 269 274 274 0 329 272 0 0 +1
5 269 109 0 274 268 330 15 330 147 0 280 268 0 17 280 0 330 280 280 0 331 278 0
 0 +17 331 0 285 331 331 0 280 278 0 0 -15 285 168 0 331 284 0 17 293 0 287 293
 293 0 277 260 0 0 -82 1 313 -1506606960 82 1 308 -1514930032 83 3 304 1 1 1 83
 3 291 1 1 1 17 201 0 237 220 235 216 246 42 0 259 +19 194 95 0 24 0 41 37 S0 74
 20 192 4 0 0 324 190 321 34 0 0 0 0 0 0 0 0 0 0 0 0 0 0 0 0 81 2 190 214 184 24
 0 34 0 0 332 0 83 1 332 1e3 84 5 191 crank81 1 22 257 5 12 333 0 0 0 334 70 23
 0 4 T12 0 0 4 20 1 335 335 13 25 94 0 12 0 336 0 0 337 0 51 26 89 0 338 339 0 0
 -0 0 .002 0 0 -1 .005 -1 0 0 30 27 93 0 30 340 0 0 +0 -.005 .002 0 0 -1 29 28 7
0 0 341 342 0 0 .005 0 19 29 28 0 12 337 0 343 V0 16 30 77 0 ?344 0 345 27 0 0 1
2 18 31 25 0 346 0 347 348 ?12 17 346 0 349 350 351 31 352 353 0 354 +18 347 22
 0 351 31 355 356 ?12 29 348 27 0 31 356 357 0 .005 .002 29 356 24 0 347 358 348
 .04 .005 .002 29 357 73 0 359 348 360 0 -.005 0 18 359 64 0 361 362 0 357 ?12 2
9 360 72 0 362 357 342 .04 -.005 0 18 362 63 0 363 364 359 360 ?12 29 342 71 0 3
64 360 28 .04 .005 0 18 364 62 0 365 341 362 342 ?12 17 365 0 366 367 368 364 36
9 370 0 371 +18 341 61 0 372 373 364 28 ?12 17 372 0 374 354 371 341 375 376 0 3
77 +18 373 16 0 378 355 341 379 ?12 17 378 0 380 344 381 373 382 383 0 350 -18 3
55 19 0 382 347 373 358 ?12 29 379 18 0 373 0 358 0 -.005 .002 29 358 21 0 355 3
79 356 .04 -.005 .002 17 382 0 349 351 350 355 378 383 0 381 +15 349 3 0 350 336
 384 17 351 0 349 346 382 347 385 386 0 367 +17 350 0 349 382 346 373 387 388 0
 389 +16 383 7 0 ?382 386 388 390 0 0 12 17 381 0 380 378 363 355 368 345 0 385
 -15 380 82 0 363 391 0 17 363 0 380 381 344 362 361 392 0 368 +17 368 0 366 365
 385 362 381 345 0 369 +16 345 76 0 ?368 30 393 340 0 0 12 17 385 0 366 368 367
 355 351 386 0 0 -15 366 80 0 365 394 0 17 367 0 366 385 365 347 371 393 0 352 -
16 386 10 0 ?351 353 383 395 0 0 12 16 353 13 0 ?346 396 386 397 0 0 12 31 395 1
1 0 386 390 397 0 +.04 0 .002 0 0 1 1 0 0 .005 30 390 8 0 383 398 395 0 +0 -.005
 .002 1 650521303491303e-31 0 30 397 14 0 353 395 399 0 +0 .005 .002 -1 65052130
3491303e-31 0 31 399 69 0 400 397 401 0 +0 0 0 0 0 1 1 0 0 .005 16 400 57 0 ?402
 392 403 399 0 0 12 30 401 68 0 392 399 404 0 +0 -.005 0 1 650521303491303e-31 0
 16 392 53 0 ?363 370 400 401 0 0 12 31 404 67 0 370 401 405 0 +.04 0 0 0 0 1 1
 0 0 .005 16 370 49 0 ?365 376 392 404 0 0 12 30 405 66 0 376 404 406 0 +0 .005
 0 -1 650521303491303e-31 0 16 376 45 0 ?372 388 370 405 0 0 12 30 406 90 0 396
 405 407 0 +0 .005 .002 0 0 -1 16 396 74 0 ?377 393 353 406 0 0 12 30 407 91 0 3
93 406 340 0 +.04 .005 .002 0 0 -1 16 393 75 0 ?371 345 396 407 0 0 12 30 340 92
 0 345 407 27 0 +.04 -.005 .002 0 0 -1 17 371 0 374 372 352 364 367 393 0 375 +1
5 374 78 0 372 408 0 17 352 0 374 371 354 347 346 353 0 0 -17 375 0 409 369 410
 364 372 376 0 0 -15 409 44 0 410 411 412 17 369 0 409 361 375 362 365 370 0 0 -
17 410 0 409 375 361 341 402 400 0 0 -17 361 0 409 410 369 359 363 392 0 344 -17
 402 0 413 389 377 359 410 400 0 0 +15 413 84 0 402 338 0 17 389 0 413 387 402 3
73 344 30 0 0 -17 377 0 413 402 387 341 354 396 0 410 +17 387 0 413 377 389 31 3
50 388 0 0 -17 354 0 374 352 372 31 377 396 0 387 -16 388 4 0 ?350 383 376 398 0
 0 12 31 398 5 0 388 414 390 0 +0 0 .002 0 0 1 1 0 0 .005 31 414 142 0 415 416 3
98 0 +.04 0 0 0 0 1 1 0 0 .003 16 415 120 0 ?417 403 418 414 0 0 12 31 416 143 0
 403 419 414 0 +.04 0 .002 0 0 1 1 0 0 .003 16 403 123 0 ?420 400 415 416 0 0 12
 31 419 180 0 421 422 416 0 +0 0 0 0 0 1 1 0 0 .003 16 421 158 0 ?423 418 0 419
 0 0 12 31 422 181 0 418 0 419 0 +0 0 .002 0 0 1 1 0 0 .003 16 418 161 0 ?424 41
5 421 422 0 0 12 17 424 0 425 424 424 0 426 418 0 0 +15 425 167 0 424 427 428 17
 426 0 384 426 426 0 424 418 0 0 -15 384 152 0 426 336 0 14 336 155 429 ?411 0 4
30 25 431 +0 0 411 0 343 81 1 429 249 150 336 432 0 0 433 434 14 411 149 433 ?33
8 336 409 25 435 -0 0 338 336 343 15 430 114 0 436 336 349 50 431 2 0 336 437 43
5 0 +0 0 .002 0 0 1 1 0 0 13 343 29 0 0 0 0 0 0 29 336 51 437 139 0 438 439 431
 0 -.04 0 .002 0 0 -1 .003 -1 0 0 50 435 65 0 411 431 440 0 +0 0 0 0 0 1 1 0 0 5
0 440 86 0 408 435 441 0 +0 .005 .002 -650521303491303e-31 -1 0 1 -6505213034913
03e-31 0 14 408 79 442 ?438 394 374 25 440 -0 0 438 394 343 51 441 87 0 394 440
 339 0 -.04 0 .002 0 0 -1 .005 -1 0 0 14 394 81 443 ?408 391 366 25 441 -0 0 408
 391 343 50 339 88 0 391 441 26 0 +0 -.005 .002 -650521303491303e-31 1 0 -1 -650
521303491303e-31 0 14 391 83 444 ?394 338 380 25 339 -0 0 394 338 343 81 1 444 2
52 150 391 445 0 446 443 447 14 338 85 446 ?391 411 413 25 26 -0 0 391 411 343 8
1 1 446 251 150 338 448 0 433 444 449 81 1 448 243 168 338 0 446 445 450 451 81
 1 433 250 150 411 452 0 429 446 453 83 3 449 1 1 1 81 1 452 235 168 411 0 433 4
32 454 455 83 3 453 1 1 1 81 1 432 233 168 336 0 429 0 452 456 81 1 454 237 168
 408 0 442 452 457 458 82 1 455 1412956301 81 1 442 254 150 408 454 0 443 459 46
0 81 1 457 239 168 394 0 443 454 445 461 82 1 458 1404371085 81 1 443 253 150 39
4 457 0 444 442 462 81 1 445 241 168 391 0 444 457 448 463 82 1 461 1404633229 8
2 1 463 1404895373 83 3 462 1 1 1 81 1 459 255 150 438 450 0 442 464 465 83 3 46
0 1 1 1 14 438 126 459 ?427 408 466 25 437 +0 0 427 408 343 81 1 450 245 168 438
 0 459 448 467 468 81 1 464 256 150 427 467 0 459 0 469 83 3 465 1 1 1 14 427 16
4 464 ?0 438 425 25 439 +0 0 0 438 343 81 1 467 247 168 427 0 464 450 0 470 83 3
 469 1 1 1 82 1 470 1409941645 51 439 177 0 427 0 437 0 -0 0 .002 0 0 -1 .003 -1
 0 0 82 1 468 1394147469 15 466 129 0 420 438 471 17 420 0 466 420 420 0 436 403
 0 0 +15 471 130 0 472 438 0 17 472 0 471 472 472 0 417 415 0 0 -17 417 0 412 41
7 417 0 472 415 0 0 +15 412 109 0 417 411 473 15 473 147 0 423 411 0 17 423 0 47
3 423 423 0 474 421 0 0 +17 474 0 428 474 474 0 423 421 0 0 -15 428 168 0 474 42
7 0 17 436 0 430 436 436 0 420 403 0 0 -82 1 456 1413480589 82 1 451 1405157517
 83 3 447 1 1 1 83 3 434 1 1 1 17 344 0 380 363 378 359 389 30 0 402 +19 337 95
 0 12 0 29 25 S0 74 20 335 4 0 0 467 333 464 22 0 0 0 0 0 0 0 0 0 0 0 0 0 0 0 0
 81 2 333 214 184 12 0 22 0 0 475 0 83 1 475 1e3 84 3 334 rod81 1 10 211 5 7 476
 0 0 0 477 70 11 0 4 T7 0 0 4 20 1 478 478 13 13 94 0 7 0 479 0 0 480 0 50 14 89
 0 481 482 0 0 +-.006 .006 .002 1 0 0 0 0 -1 30 15 93 0 18 483 0 0 +-.006 -.006
 .002 0 0 -1 29 16 70 0 484 485 0 -.006 .006 0 19 17 28 0 7 480 0 486 V0 16 18 7
7 0 ?487 0 488 15 0 0 7 18 19 25 0 489 0 490 491 ?7 17 489 0 492 493 494 19 495
 496 0 497 +18 490 22 0 494 19 498 499 ?7 29 491 27 0 19 499 500 -.006 .006 .002
 29 499 24 0 490 501 491 .006 .006 .002 29 500 73 0 502 491 503 -.006 -.006 0 18
 502 64 0 504 505 0 500 ?7 29 503 72 0 505 500 485 .006 -.006 0 18 505 63 0 506
 507 502 503 ?7 29 485 71 0 507 503 16 .006 .006 0 18 507 62 0 508 484 505 485 ?
7 17 508 0 509 510 511 507 512 513 0 514 +18 484 61 0 515 516 507 16 ?7 17 515 0
 517 497 514 484 518 519 0 520 +18 516 16 0 521 498 484 522 ?7 17 521 0 523 487
 524 516 525 526 0 493 -18 498 19 0 525 490 516 501 ?7 29 522 18 0 516 0 501 -.0
06 -.006 .002 29 501 21 0 498 522 499 .006 -.006 .002 17 525 0 492 494 493 498 5
21 526 0 524 +15 492 3 0 493 479 527 17 494 0 492 489 525 490 528 529 0 510 +17
 493 0 492 525 489 516 530 531 0 532 +16 526 7 0 ?525 529 531 533 0 0 7 17 524 0
 523 521 506 498 511 488 0 528 -15 523 82 0 506 534 0 17 506 0 523 524 487 505 5
04 535 0 511 +17 511 0 509 508 528 505 524 488 0 512 +16 488 76 0 ?511 18 536 48
3 0 0 7 17 528 0 509 511 510 498 494 529 0 0 -15 509 80 0 508 537 0 17 510 0 509
 528 508 490 514 536 0 495 -16 529 10 0 ?494 496 526 538 0 0 7 16 496 13 0 ?489
 539 529 540 0 0 7 30 538 11 0 529 533 540 0 +.006 .006 .002 0 1 0 30 533 8 0 52
6 541 538 0 +-.006 -.006 .002 1 0 0 30 540 14 0 496 538 542 0 +-.006 .006 .002 -
1 0 0 30 542 69 0 543 540 544 0 +-.006 .006 0 0 -1 0 16 543 57 0 ?545 535 546 54
2 0 0 7 30 544 68 0 535 542 547 0 +-.006 -.006 0 1 0 0 16 535 53 0 ?506 513 543
 544 0 0 7 30 547 67 0 513 544 548 0 +.006 .006 0 0 1 0 16 513 49 0 ?508 519 535
 547 0 0 7 30 548 66 0 519 547 549 0 +-.006 .006 0 -1 0 0 16 519 45 0 ?515 531 5
13 548 0 0 7 30 549 90 0 539 548 550 0 +-.006 .006 .002 0 0 -1 16 539 74 0 ?520
 536 496 549 0 0 7 30 550 91 0 536 549 483 0 +.006 .006 .002 0 0 -1 16 536 75 0
 ?514 488 539 550 0 0 7 30 483 92 0 488 550 15 0 +.006 -.006 .002 0 0 -1 17 514
 0 517 515 495 507 510 536 0 518 +15 517 78 0 515 551 0 17 495 0 517 514 497 490
 489 496 0 0 -17 518 0 552 512 553 507 515 519 0 0 -15 552 44 0 553 554 555 17 5
12 0 552 504 518 505 508 513 0 0 -17 553 0 552 518 504 484 545 543 0 0 -17 504 0
 552 553 512 502 506 535 0 487 -17 545 0 556 532 520 502 553 543 0 0 +15 556 84
 0 545 481 0 17 532 0 556 530 545 516 487 18 0 0 -17 520 0 556 545 530 484 497 5
39 0 553 +17 530 0 556 520 532 19 493 531 0 0 -17 497 0 517 495 515 19 520 539 0
 530 -16 531 4 0 ?493 526 519 541 0 0 7 30 541 5 0 531 557 533 0 +-.006 .006 .00
2 0 -1 0 31 557 142 0 558 559 541 0 +0 0 0 0 0 1 1 0 0 .003 16 558 120 0 ?560 54
6 0 557 0 0 7 31 559 143 0 546 0 557 0 +0 0 .002 0 0 1 1 0 0 .003 16 546 123 0 ?
561 543 558 559 0 0 7 17 561 0 562 561 561 0 563 546 0 0 +15 562 129 0 561 564 5
65 17 563 0 527 563 563 0 561 546 0 0 -15 527 114 0 563 479 0 14 479 117 566 ?55
4 0 492 13 567 +0 0 554 0 486 81 1 566 204 150 479 568 0 0 569 570 14 554 111 56
9 ?481 479 552 13 571 -0 0 481 479 486 50 567 2 0 479 572 571 0 +0 0 .002 0 0 1
 1 0 0 13 486 29 0 0 0 0 0 0 17 479 51 572 139 0 564 0 567 0 -0 0 .002 0 0 -1 .0
03 -1 0 0 50 571 65 0 554 567 573 0 +0 0 0 0 0 1 1 0 0 50 573 86 0 551 571 574 0
 +-.006 .006 .002 0 -1 0 0 0 -1 14 551 79 575 ?564 537 517 13 573 -0 0 564 537 4
86 50 574 87 0 537 573 482 0 +.006 .006 .002 -1 0 0 0 0 1 14 537 81 576 ?551 534
 509 13 574 -0 0 551 534 486 50 482 88 0 534 574 14 0 +-.006 -.006 .002 0 1 0 0
 0 1 14 534 83 577 ?537 481 523 13 482 -0 0 537 481 486 81 1 577 207 150 534 578
 0 579 576 580 14 481 85 579 ?534 554 556 13 14 -0 0 534 554 486 81 1 579 206 15
0 481 581 0 569 577 582 81 1 581 200 168 481 0 579 578 583 584 81 1 569 205 150
 554 585 0 566 579 586 83 3 582 1 1 1 81 1 585 192 168 554 0 569 568 587 588 83
 3 586 1 1 1 81 1 568 190 168 479 0 566 0 585 589 81 1 587 194 168 551 0 575 585
 590 591 82 1 588 1797718157 81 1 575 209 150 551 587 0 576 592 593 81 1 590 196
 168 537 0 576 587 578 594 82 1 591 1794506893 81 1 576 208 150 537 590 0 577 57
5 595 81 1 578 198 168 534 0 577 590 581 596 82 1 594 1794769037 82 1 596 179503
1181 83 3 595 1 1 1 81 1 592 210 150 564 583 0 575 0 597 83 3 593 1 1 1 14 564 1
26 592 ?0 551 562 13 572 +0 0 0 551 486 81 1 583 202 168 564 0 592 581 0 598 83
 3 597 1 1 1 82 1 598 1784283277 82 1 589 1798242445 82 1 584 1795293325 83 3 58
0 1 1 1 83 3 570 1 1 1 15 565 130 0 599 564 0 17 599 0 565 599 599 0 560 558 0 0
 -17 560 0 555 560 560 0 599 558 0 0 +15 555 109 0 560 554 0 17 487 0 523 506 52
1 502 532 18 0 545 +19 480 95 0 7 0 17 13 S0 74 20 478 4 0 0 583 476 592 10 0 0
 0 0 0 0 0 0 0 0 0 0 0 0 0 0 81 2 476 173 184 7 0 10 0 0 600 0 83 1 600 1e3 84 7
 477 sliding74 20 6 1 0 0 2 0 0 0 0 0 0 0 0 0 0 0 0 0 0 0 0 0 0 0 1 0 
